# xmcd CD database file
#
# Track frame offsets:
#	150
#	14546
#	27515
#	42155
#	53195
#	63519
#	80698
#	92513
#	102066
#	115033
#	132204
#	154365
#	166745
#	179090
#	194442
#	208954
#
# Disc length: 2960 seconds
#
# Revision: 0
# Processed by: cddbd v1.5PL3 Copyright (c) Steve Scherf et al.
# Submitted via: CDex 1.51
#
DISCID=de0b8e10
DTITLE=Glenn Miller - Miller Forever
DYEAR=1900
DGENRE=Jazz
TTITLE0=Pennsylvania Six Five Thousand
TTITLE1=Everybody Loves My Baby
TTITLE2=My Blue Heaven
TTITLE3=Fanhat Stomp
TTITLE4=Sleepy Lagoon
TTITLE5=Intermezzo
TTITLE6=Buggle Call Rag
TTITLE7=Sunrise Serenade
TTITLE8=Johnson Rag
TTITLE9=Moonlight Sonata
TTITLE10=By The Waters Of Minnetonka (Indian Love Song)
TTITLE11=Runnin' Wild
TTITLE12=At Last
TTITLE13=Ida ! Sweet As Apple Cider
TTITLE14=Don"t Sit Under The Appletree (With Anyone Else But Me)
TTITLE15=Adios
EXTD=
EXTT0=
EXTT1=
EXTT2=
EXTT3=
EXTT4=
EXTT5=
EXTT6=
EXTT7=
EXTT8=
EXTT9=
EXTT10=
EXTT11=
EXTT12=
EXTT13=
EXTT14=
EXTT15=
PLAYORDER=
